<svg width="15" height="15" viewBox="0 0 15 15" fill="none" xmlns="http://www.w3.org/2000/svg">
<g clip-path="url(#clip0)">
<path d="M14.888 7.20688C14.7541 7.05753 11.5337 3.54492 7.50001 3.54492C3.46636 3.54492 0.245933 7.05753 0.112017 7.20688C-0.0373389 7.37382 -0.0373389 7.62618 0.112017 7.79312C0.245933 7.94247 3.46642 11.4551 7.50001 11.4551C11.5336 11.4551 14.7541 7.94247 14.888 7.79312C15.0373 7.62618 15.0373 7.37382 14.888 7.20688ZM7.50001 10.5762C5.80399 10.5762 4.42384 9.19603 4.42384 7.5C4.42384 5.80397 5.80399 4.42383 7.50001 4.42383C9.19604 4.42383 10.5762 5.80397 10.5762 7.5C10.5762 9.19603 9.19604 10.5762 7.50001 10.5762Z" fill="#5A5A5A"/>
<path d="M7.93945 6.62109C7.93945 6.179 8.15892 5.79009 8.49278 5.55088C8.19319 5.39751 7.85903 5.30273 7.5 5.30273C6.28849 5.30273 5.30273 6.28849 5.30273 7.5C5.30273 8.71151 6.28849 9.69727 7.5 9.69727C8.58469 9.69727 9.48246 8.90525 9.65982 7.87037C8.77488 8.15528 7.93945 7.486 7.93945 6.62109Z" fill="#5A5A5A"/>
</g>
<defs>
<clipPath id="clip0">
<rect width="15" height="15" fill="white"/>
</clipPath>
</defs>
</svg>
