<svg width="20" height="17" viewBox="0 0 20 17" fill="none" xmlns="http://www.w3.org/2000/svg">
<path d="M0 7.93012H4.85091C4.76798 11.6707 3.76525 12.0953 2.50586 12.2165L2.0202 12.2802V16.3934L2.58 16.3617C4.22455 16.2638 6.04273 15.9501 7.25576 14.3657C8.31909 12.9767 8.78788 10.7076 8.78788 7.22421V0.769531H0V7.93012Z" fill="#23F6F0"/>
<path d="M11.2119 0.769531V7.93012H15.9981C15.9151 11.6707 14.9448 12.0953 13.6854 12.2165L13.2321 12.2802V16.3934L13.7596 16.3617C15.4041 16.2638 17.2386 15.9501 18.4516 14.3657C19.5148 12.9767 19.9998 10.7076 19.9998 7.22421V0.769531H11.2119Z" fill="#23F6F0"/>
</svg>
