<svg width="31" height="31" viewBox="0 0 31 31" fill="none" xmlns="http://www.w3.org/2000/svg">
<path d="M15.5 31C24.0604 31 31 24.0604 31 15.5C31 6.93959 24.0604 0 15.5 0C6.93959 0 0 6.93959 0 15.5C0 24.0604 6.93959 31 15.5 31Z" fill="#2D2B2B"/>
<path d="M21.0567 12.8034C16.5798 12.8034 16.574 17.2635 16.574 17.2864C16.574 17.2864 16.2673 21.752 21.0567 21.752C21.0567 21.752 25.0509 21.9791 25.0509 18.6441H22.9999C22.9999 18.6441 23.0679 19.8997 21.125 19.8997C21.125 19.8997 19.074 20.0361 19.074 17.8713H25.1192C25.1192 17.8713 25.784 12.8034 21.0567 12.8034ZM19.051 16.3088C19.051 16.3088 19.3011 14.5134 21.1023 14.5134C22.909 14.5134 22.8806 16.3088 22.8806 16.3088H19.051ZM13.9267 15.1613C13.9267 15.1613 15.705 15.0307 15.705 12.9399C15.705 10.8549 14.2506 9.83203 12.404 9.83203H6.33008V21.5075H12.4035C12.4035 21.5075 16.1137 21.6213 16.1137 18.0589C16.1139 18.0589 16.2731 15.1613 13.9267 15.1613ZM9.00634 11.9057H12.4038C12.4038 11.9057 13.2277 11.9057 13.2277 13.1214C13.2277 14.3371 12.7447 14.5134 12.1935 14.5134H9.00634V11.9057ZM12.2335 19.4338H9.00634V16.3088H12.4038C12.4038 16.3088 13.6369 16.2975 13.6311 17.9166C13.6311 19.2805 12.7165 19.4225 12.2335 19.4338ZM18.5454 10.5195V11.9571H23.3636V10.5195H18.5454Z" fill="#1F1F1F"/>
</svg>
