<svg width="31" height="31" viewBox="0 0 31 31" fill="none" xmlns="http://www.w3.org/2000/svg">
<g clip-path="url(#clip0)">
<path d="M15.5 0.646484C6.93625 0.646484 0 7.46648 0 15.8778C0 22.6087 4.44075 28.3166 10.5981 30.329C11.3731 30.4724 11.6573 30.0009 11.6573 29.5966C11.6573 29.2349 11.6444 28.2765 11.6379 27.0068C7.32633 27.9252 6.417 24.9634 6.417 24.9634C5.71175 23.2054 4.69262 22.7353 4.69262 22.7353C3.28858 21.7911 4.80113 21.8104 4.80113 21.8104C6.35758 21.9164 7.17521 23.3798 7.17521 23.3798C8.55729 25.7087 10.8035 25.0357 11.6896 24.6469C11.8291 23.6614 12.2282 22.991 12.6713 22.61C9.22896 22.2289 5.611 20.9192 5.611 15.0834C5.611 13.4211 6.21162 12.0622 7.20621 10.9966C7.03183 10.6117 6.50871 9.06299 7.34183 6.96532C7.34183 6.96532 8.63996 6.55715 11.6043 8.52694C12.8443 8.18853 14.1618 8.02061 15.4793 8.01286C16.7968 8.02061 18.1143 8.18853 19.3543 8.52694C22.2993 6.55715 23.5975 6.96532 23.5975 6.96532C24.4306 9.06299 23.9075 10.6117 23.7525 10.9966C24.7406 12.0622 25.3412 13.4211 25.3412 15.0834C25.3412 20.9347 21.7181 22.2225 18.2693 22.5971C18.8118 23.0543 19.3156 23.9882 19.3156 25.4155C19.3156 27.4537 19.2962 29.0916 19.2962 29.5863C19.2962 29.9854 19.5675 30.462 20.3618 30.3096C26.5631 28.3101 31 22.5984 31 15.8778C31 7.46648 24.0599 0.646484 15.5 0.646484Z" fill="#2D2B2B"/>
</g>
<defs>
<clipPath id="clip0">
<rect width="31" height="31" fill="white"/>
</clipPath>
</defs>
</svg>
