<svg width="31" height="31" viewBox="0 0 31 31" fill="none" xmlns="http://www.w3.org/2000/svg">
<path d="M15.5 31C24.0604 31 31 24.0604 31 15.5C31 6.93959 24.0604 0 15.5 0C6.93959 0 0 6.93959 0 15.5C0 24.0604 6.93959 31 15.5 31Z" fill="#2D2B2B"/>
<path d="M24.9915 10.7855C24.3273 11.0971 23.6128 11.3079 22.8635 11.402C23.6286 10.917 24.2157 10.1496 24.4928 9.23375C23.777 9.68307 22.9837 10.009 22.1402 10.1847C21.4644 9.42319 20.5015 8.94727 19.4353 8.94727C17.3896 8.94727 15.7305 10.7027 15.7305 12.8672C15.7305 13.1744 15.7634 13.4735 15.8269 13.7606C12.7479 13.5971 10.0179 12.0367 8.19045 9.66436C7.87161 10.2432 7.6887 10.917 7.6887 11.6353C7.6887 12.9949 8.34324 14.1953 9.33679 14.898C8.72977 14.8779 8.15812 14.7016 7.65886 14.4072C7.65859 14.4239 7.65859 14.4405 7.65859 14.4569C7.65859 16.3562 8.93617 17.9404 10.6307 18.3002C10.3201 18.3903 9.99216 18.4379 9.6548 18.4379C9.41553 18.4379 9.18372 18.4136 8.95772 18.368C9.42907 19.925 10.797 21.0584 12.4186 21.0903C11.1504 22.1418 9.55313 22.7683 7.8169 22.7683C7.51851 22.7683 7.22287 22.7498 6.93359 22.7133C8.57229 23.8259 10.5202 24.4746 12.6122 24.4746C19.4267 24.4746 23.1534 18.5016 23.1534 13.3212C23.1534 13.1513 23.1498 12.9821 23.1426 12.8143C23.867 12.2618 24.495 11.5716 24.9915 10.7855Z" fill="#1F1F1F"/>
</svg>
