<svg width="682" height="479" viewBox="0 0 682 479" fill="none" xmlns="http://www.w3.org/2000/svg">
<path d="M557.039 300.403H117.791C114.793 300.4 111.918 299.205 109.798 297.081C107.677 294.958 106.485 292.078 106.481 289.075V17.7779C106.484 15.5776 107.358 13.4681 108.911 11.9122C110.464 10.3563 112.57 9.48105 114.767 9.47852H559.92C562.155 9.48106 564.297 10.3714 565.877 11.9542C567.457 13.537 568.346 15.683 568.349 17.9214V289.075C568.345 292.078 567.153 294.958 565.032 297.081C562.912 299.205 560.038 300.4 557.039 300.403Z" fill="#3F3D56"/>
<path d="M541.015 284.36H131.648C125.647 284.36 120.765 279.781 120.765 274.152V37.9036C120.765 33.7293 124.382 30.333 128.829 30.333H543.7C548.221 30.333 551.898 33.7852 551.898 38.0283V274.152C551.898 279.781 547.016 284.36 541.015 284.36Z" fill="#2A2A2A"/>
<path d="M568.191 17.1298H106.322V11.3624C106.327 8.34905 107.524 5.46043 109.652 3.3303C111.78 1.20017 114.665 0.00248956 117.673 0H556.84C559.848 0.00247505 562.733 1.20015 564.861 3.33029C566.989 5.46042 568.186 8.34904 568.191 11.3624V17.1298Z" fill="#3F3D56"/>
<path d="M126.951 11.5233C128.572 11.5233 129.887 10.2066 129.887 8.58243C129.887 6.95825 128.572 5.6416 126.951 5.6416C125.329 5.6416 124.015 6.95825 124.015 8.58243C124.015 10.2066 125.329 11.5233 126.951 11.5233Z" fill="#2A2A2A"/>
<path d="M138.095 11.5233C139.717 11.5233 141.031 10.2066 141.031 8.58243C141.031 6.95825 139.717 5.6416 138.095 5.6416C136.474 5.6416 135.159 6.95825 135.159 8.58243C135.159 10.2066 136.474 11.5233 138.095 11.5233Z" fill="#2A2A2A"/>
<path d="M149.239 11.5233C150.86 11.5233 152.175 10.2066 152.175 8.58243C152.175 6.95825 150.86 5.6416 149.239 5.6416C147.617 5.6416 146.303 6.95825 146.303 8.58243C146.303 10.2066 147.617 11.5233 149.239 11.5233Z" fill="#2A2A2A"/>
<path d="M189.682 232.723H484.99C487.899 232.723 490.688 231.566 492.745 229.506C494.801 227.445 495.957 224.651 495.957 221.738V93.6617C495.957 90.7483 494.801 87.9543 492.745 85.8942C490.688 83.8341 487.899 82.6768 484.99 82.6768H189.682C186.773 82.6768 183.984 83.8341 181.927 85.8942C179.87 87.9543 178.715 90.7483 178.715 93.6617V221.738C178.715 224.651 179.87 227.445 181.927 229.506C183.984 231.566 186.773 232.723 189.682 232.723Z" fill="#2A2A2A"/>
<path d="M440.572 208.373H237.685C237.504 208.373 237.329 208.301 237.201 208.172C237.072 208.043 237 207.869 237 207.687C237 207.504 237.072 207.33 237.201 207.201C237.329 207.072 237.504 207 237.685 207H440.572C440.754 207 440.928 207.072 441.057 207.201C441.185 207.33 441.257 207.504 441.257 207.687C441.257 207.869 441.185 208.043 441.057 208.172C440.928 208.301 440.754 208.373 440.572 208.373Z" fill="#CCCCCC"/>
<path d="M546.081 335.895C546.636 335.053 547.369 334.343 548.228 333.815C549.087 333.288 550.051 332.955 551.052 332.841C552.054 332.727 553.068 332.834 554.023 333.155C554.978 333.476 555.852 334.003 556.582 334.698L578.348 323.446L576.994 336.123L556.532 344.865C555.285 346.016 553.658 346.668 551.962 346.699C550.266 346.729 548.618 346.135 547.329 345.03C546.041 343.924 545.202 342.384 544.972 340.7C544.742 339.016 545.137 337.307 546.081 335.895Z" fill="#FFB8B8"/>
<path d="M564.808 340.622C564.314 340.234 563.95 339.705 563.764 339.104L562.033 333.502C561.847 332.895 561.851 332.246 562.046 331.641C562.24 331.037 562.615 330.507 563.12 330.123L580.762 316.776L599.868 281.273C600.668 280.241 601.664 279.376 602.797 278.729C603.931 278.082 605.181 277.665 606.476 277.502C607.771 277.339 609.085 277.432 610.343 277.778C611.602 278.123 612.78 278.714 613.811 279.515C614.841 280.317 615.704 281.314 616.35 282.45C616.996 283.586 617.412 284.838 617.575 286.134C617.738 287.431 617.644 288.748 617.299 290.008C616.954 291.269 616.365 292.449 615.564 293.481L604.694 316.461C601.396 323.435 595.681 328.973 588.612 332.043L567.938 341.025C567.54 341.198 567.111 341.284 566.678 341.28C566.244 341.275 565.817 341.179 565.423 340.998C565.204 340.898 564.998 340.771 564.808 340.622Z" fill="#3F3D56"/>
<path d="M616.045 266.456C625.342 266.456 632.88 258.906 632.88 249.593C632.88 240.28 625.342 232.73 616.045 232.73C606.747 232.73 599.21 240.28 599.21 249.593C599.21 258.906 606.747 266.456 616.045 266.456Z" fill="#FFB8B8"/>
<path d="M609.216 470.8L600.813 470.799L596.816 438.333L609.219 438.334L609.216 470.8Z" fill="#FFB8B8"/>
<path d="M594.81 468.394H611.016V478.614H584.606C584.606 477.272 584.87 475.943 585.383 474.703C585.896 473.463 586.648 472.336 587.595 471.387C588.543 470.438 589.667 469.685 590.905 469.172C592.143 468.658 593.47 468.394 594.81 468.394Z" fill="#2F2E41"/>
<path d="M636.633 470.801L628.23 470.801L624.233 438.334L636.636 438.335L636.633 470.801Z" fill="#FFB8B8"/>
<path d="M622.227 468.396H638.433V478.616H612.023C612.023 477.274 612.287 475.945 612.8 474.705C613.313 473.465 614.065 472.338 615.012 471.389C615.96 470.44 617.084 469.687 618.322 469.174C619.56 468.66 620.887 468.396 622.227 468.396Z" fill="#2F2E41"/>
<path d="M637.247 462.563L627.4 462.562C626.722 462.561 626.063 462.337 625.525 461.924C624.987 461.511 624.599 460.932 624.422 460.276L610.248 407.617C610.226 407.534 610.174 407.464 610.102 407.417C610.031 407.371 609.945 407.353 609.862 407.367C609.778 407.381 609.702 407.425 609.649 407.491C609.596 407.558 609.57 407.642 609.575 407.726L612.438 457.668C612.463 458.11 612.394 458.552 612.234 458.964C612.074 459.377 611.827 459.75 611.511 460.058C611.195 460.367 610.816 460.604 610.401 460.753C609.985 460.903 609.542 460.961 609.102 460.924L598.034 460C597.325 459.939 596.658 459.635 596.147 459.139C595.636 458.643 595.31 457.986 595.227 457.278L585.144 352.41L589.045 354.754L625.598 348.538L640.305 459.065C640.363 459.501 640.327 459.945 640.2 460.366C640.073 460.788 639.858 461.177 639.568 461.508C639.279 461.839 638.922 462.105 638.521 462.287C638.121 462.469 637.687 462.563 637.247 462.563H637.247Z" fill="#2F2E41"/>
<path d="M597.368 363.479C593.335 363.446 589.384 362.333 585.927 360.253C585.394 359.937 584.969 359.467 584.708 358.905C584.446 358.343 584.361 357.715 584.462 357.103C585.748 349.217 592.471 308.764 598.588 286.71C601.079 277.728 606.588 272.89 614.96 272.331C627.208 271.527 638.093 281.124 639.227 293.752C641.227 316.03 633.104 347.682 629.519 360.256C629.38 360.742 629.124 361.186 628.774 361.549C628.423 361.913 627.989 362.185 627.51 362.341C627.03 362.497 626.52 362.533 626.023 362.446C625.526 362.358 625.058 362.15 624.661 361.839L617.353 356.145C616.903 355.801 616.348 355.626 615.782 355.649C615.217 355.673 614.677 355.894 614.258 356.275C608.098 361.778 602.247 363.479 597.368 363.479Z" fill="#3F3D56"/>
<path opacity="0.2" d="M621.537 304.652L627.705 330.742L618.793 352.712L624.963 331.429L621.537 304.652Z" fill="black"/>
<path d="M625.651 263.459C627.148 263.487 628.636 263.218 630.029 262.666C630.642 262.43 631.278 262.235 631.89 261.998C637.292 259.908 640.851 254.145 640.979 248.346C641.107 242.546 638.108 236.917 633.656 233.207C629.204 229.497 623.437 227.592 617.662 227.151C611.442 226.677 604.437 228.256 600.961 233.445C600.036 234.826 599.389 236.502 599.937 238.17C600.101 238.673 600.394 239.124 600.787 239.478C602.339 240.862 603.887 239.822 605.469 239.73C607.644 239.604 609.598 241.367 610.3 243.433C611.002 245.499 610.693 247.773 610.126 249.88C609.694 251.148 609.422 252.465 609.315 253.801C609.269 254.47 609.395 255.14 609.68 255.748C609.966 256.355 610.401 256.879 610.945 257.271C612.304 258.094 614.089 257.618 615.449 256.796C616.809 255.975 617.984 254.832 619.453 254.228C620.922 253.623 622.896 253.758 623.751 255.098C624.022 255.586 624.206 256.118 624.294 256.67C625.06 260.167 624.884 259.961 625.651 263.459Z" fill="#2F2E41"/>
<path d="M599.557 447.247L494.141 410.474C492.332 409.841 490.848 408.515 490.014 406.787C489.18 405.059 489.065 403.07 489.693 401.257L517.086 322.468C517.55 321.141 518.519 320.051 519.783 319.439C521.047 318.827 522.502 318.743 523.828 319.204L632.808 357.219C634.156 357.691 635.262 358.68 635.883 359.968C636.505 361.255 636.591 362.738 636.123 364.089L608.759 442.791C608.127 444.603 606.803 446.09 605.078 446.925C603.353 447.76 601.367 447.876 599.557 447.247Z" fill="#3F3D56"/>
<path d="M503.137 405.946L595.316 438.102C597.071 438.714 598.997 438.603 600.671 437.792C602.344 436.982 603.628 435.539 604.239 433.781L626.359 370.16C626.971 368.401 626.86 366.472 626.051 364.796C625.242 363.119 623.801 361.834 622.046 361.221L529.867 329.066C528.112 328.454 526.185 328.565 524.512 329.376C522.838 330.186 521.555 331.629 520.944 333.387L498.823 397.008C498.521 397.879 498.392 398.801 498.445 399.721C498.498 400.641 498.732 401.542 499.132 402.372C499.533 403.202 500.093 403.945 500.78 404.558C501.467 405.172 502.268 405.643 503.137 405.946Z" fill="#2A2A2A"/>
<path d="M526.284 361.247L521.719 359.654C521.471 359.568 521.268 359.386 521.154 359.15C521.04 358.913 521.024 358.641 521.11 358.393L522.7 353.821C522.787 353.573 522.968 353.369 523.204 353.255C523.44 353.141 523.711 353.125 523.959 353.211L528.524 354.804C528.772 354.89 528.975 355.072 529.089 355.308C529.203 355.544 529.219 355.817 529.133 356.065L527.543 360.637C527.457 360.885 527.275 361.089 527.039 361.203C526.803 361.317 526.532 361.333 526.284 361.247Z" fill="#23F6F0"/>
<path d="M522.166 373.095L517.601 371.502C517.353 371.415 517.15 371.234 517.036 370.998C516.922 370.761 516.906 370.489 516.992 370.241L518.582 365.668C518.669 365.42 518.85 365.217 519.086 365.103C519.322 364.988 519.593 364.973 519.841 365.059L524.406 366.651C524.654 366.738 524.857 366.919 524.971 367.156C525.085 367.392 525.101 367.664 525.015 367.912L523.425 372.485C523.338 372.733 523.157 372.936 522.921 373.05C522.685 373.165 522.414 373.181 522.166 373.095Z" fill="#3F3D56"/>
<path d="M518.047 384.941L513.482 383.349C513.234 383.262 513.031 383.081 512.917 382.844C512.803 382.608 512.787 382.336 512.873 382.088L514.463 377.515C514.549 377.267 514.731 377.064 514.967 376.949C515.203 376.835 515.474 376.819 515.722 376.905L520.287 378.498C520.535 378.584 520.738 378.766 520.852 379.002C520.966 379.239 520.982 379.511 520.896 379.759L519.306 384.332C519.219 384.579 519.038 384.783 518.802 384.897C518.566 385.011 518.294 385.027 518.047 384.941Z" fill="#CCCCCC"/>
<path d="M556.961 369.384L534.965 361.711C534.842 361.668 534.729 361.602 534.631 361.515C534.534 361.429 534.455 361.324 534.398 361.207C534.341 361.09 534.308 360.962 534.301 360.832C534.293 360.702 534.311 360.572 534.354 360.449C534.397 360.326 534.463 360.212 534.55 360.115C534.636 360.018 534.741 359.939 534.858 359.882C534.976 359.826 535.103 359.793 535.233 359.786C535.363 359.778 535.493 359.797 535.615 359.84L557.611 367.513C557.734 367.556 557.847 367.622 557.945 367.708C558.042 367.795 558.121 367.9 558.178 368.017C558.235 368.134 558.268 368.261 558.275 368.392C558.283 368.522 558.265 368.652 558.222 368.775C558.179 368.898 558.113 369.011 558.026 369.109C557.939 369.206 557.835 369.285 557.717 369.341C557.6 369.398 557.473 369.431 557.343 369.438C557.213 369.445 557.083 369.427 556.961 369.384Z" fill="#CCCCCC"/>
<path d="M552.841 381.231L530.845 373.559C530.598 373.472 530.394 373.291 530.28 373.054C530.166 372.818 530.15 372.546 530.237 372.297C530.323 372.049 530.504 371.846 530.74 371.732C530.976 371.617 531.248 371.602 531.496 371.688L553.491 379.361C553.614 379.403 553.727 379.47 553.825 379.556C553.922 379.643 554.001 379.748 554.058 379.865C554.115 379.982 554.148 380.109 554.155 380.239C554.163 380.369 554.145 380.5 554.102 380.623C554.059 380.746 553.992 380.859 553.906 380.956C553.819 381.053 553.715 381.132 553.597 381.189C553.48 381.245 553.353 381.278 553.223 381.286C553.094 381.293 552.964 381.275 552.841 381.231Z" fill="#CCCCCC"/>
<path d="M548.723 393.079L526.727 385.406C526.479 385.32 526.276 385.138 526.162 384.902C526.048 384.665 526.032 384.393 526.118 384.145C526.205 383.897 526.386 383.694 526.622 383.579C526.858 383.465 527.13 383.449 527.377 383.536L549.373 391.208C549.621 391.295 549.824 391.476 549.938 391.713C550.052 391.949 550.068 392.221 549.982 392.469C549.895 392.717 549.714 392.921 549.478 393.035C549.242 393.15 548.97 393.165 548.723 393.079Z" fill="#CCCCCC"/>
<path d="M607.256 399.498C607.416 399.113 607.567 398.721 607.706 398.322C609.514 393.123 609.186 387.416 606.793 382.459C604.401 377.502 600.141 373.7 594.949 371.889L587.72 392.683L607.256 399.498Z" fill="#23F6F0"/>
<path d="M585.618 393.948L592.847 373.154C589.027 371.821 584.9 371.637 580.976 372.626C577.053 373.614 573.504 375.73 570.766 378.715C568.029 381.699 566.224 385.421 565.574 389.421C564.923 393.42 565.455 397.523 567.104 401.224C568.754 404.924 571.449 408.06 574.856 410.245C578.264 412.43 582.235 413.568 586.28 413.519C590.326 413.47 594.269 412.236 597.623 409.969C600.976 407.703 603.595 404.502 605.154 400.763L585.618 393.948Z" fill="#3F3D56"/>
<path d="M611.5 364.119C611.418 363.113 611.558 362.101 611.909 361.155C612.259 360.209 612.813 359.351 613.531 358.643C614.248 357.934 615.112 357.391 616.061 357.053C617.011 356.715 618.023 356.59 619.026 356.686L629.22 334.378L635.966 345.19L625.251 364.716C624.978 366.393 624.1 367.912 622.784 368.985C621.468 370.057 619.805 370.609 618.111 370.535C616.416 370.461 614.807 369.768 613.588 368.585C612.37 367.403 611.627 365.813 611.5 364.119Z" fill="#FFB8B8"/>
<path d="M629.149 356.263C628.521 356.263 627.908 356.071 627.392 355.714L622.578 352.376C622.058 352.013 621.661 351.499 621.442 350.904C621.223 350.308 621.192 349.659 621.353 349.045L627.011 327.638L620.171 287.891C620.163 286.583 620.413 285.286 620.906 284.075C621.398 282.863 622.125 281.761 623.043 280.831C623.961 279.901 625.054 279.162 626.258 278.655C627.461 278.148 628.753 277.884 630.059 277.878C631.365 277.872 632.659 278.123 633.868 278.618C635.077 279.113 636.176 279.842 637.103 280.763C638.031 281.684 638.768 282.779 639.272 283.986C639.777 285.192 640.039 286.486 640.043 287.794L645.648 312.595C647.35 320.122 646.265 328.012 642.594 334.798L631.86 354.645C631.653 355.027 631.369 355.36 631.025 355.624C630.681 355.889 630.286 356.077 629.864 356.178C629.63 356.235 629.39 356.263 629.149 356.263Z" fill="#3F3D56"/>
<path d="M336.23 470.458L344.633 470.458L348.631 437.992H336.229L336.23 470.458Z" fill="#A0616A"/>
<path d="M334.087 467.71L350.636 467.709H350.636C352.021 467.709 353.393 467.982 354.672 468.513C355.952 469.044 357.114 469.822 358.094 470.803C359.073 471.784 359.85 472.948 360.38 474.23C360.91 475.512 361.183 476.885 361.183 478.273V478.616L334.087 478.617L334.087 467.71Z" fill="#2F2E41"/>
<path d="M302.644 470.458L311.047 470.458L315.045 437.992H302.643L302.644 470.458Z" fill="#A0616A"/>
<path d="M300.501 467.71L317.05 467.709H317.05C318.435 467.709 319.807 467.982 321.086 468.513C322.366 469.044 323.529 469.822 324.508 470.803C325.487 471.784 326.264 472.948 326.794 474.23C327.324 475.512 327.597 476.885 327.597 478.273V478.616L300.501 478.617L300.501 467.71Z" fill="#2F2E41"/>
<path d="M337.908 245.691C347.206 245.691 354.743 238.141 354.743 228.828C354.743 219.515 347.206 211.966 337.908 211.966C328.61 211.966 321.073 219.515 321.073 228.828C321.073 238.141 328.61 245.691 337.908 245.691Z" fill="#A0616A"/>
<path d="M349.229 463.451H333.635C333.226 463.451 332.822 463.369 332.446 463.212C332.069 463.054 331.727 462.823 331.44 462.532C331.154 462.241 330.927 461.896 330.774 461.517C330.622 461.138 330.546 460.732 330.551 460.323L331.457 386.154C331.46 385.89 331.362 385.635 331.184 385.442C331.005 385.248 330.76 385.131 330.497 385.113C330.235 385.095 329.976 385.179 329.773 385.347C329.57 385.515 329.44 385.755 329.408 386.016L320.332 460.734C320.241 461.483 319.879 462.173 319.315 462.673C318.751 463.173 318.024 463.45 317.271 463.451H301.527C301.102 463.451 300.681 463.363 300.291 463.192C299.901 463.021 299.551 462.772 299.262 462.459C298.974 462.146 298.752 461.777 298.613 461.375C298.473 460.972 298.419 460.545 298.452 460.12L308.848 326.876L309.131 326.845L358.912 321.46L352.31 460.508C352.273 461.301 351.932 462.05 351.358 462.598C350.784 463.146 350.021 463.451 349.229 463.451Z" fill="#2F2E41"/>
<path d="M309.454 335.055C308.654 335.054 307.887 334.74 307.313 334.182C306.74 333.624 306.405 332.864 306.381 332.063C306.109 323.638 305.643 294.486 311.057 273.084C312.534 267.237 315.85 262.022 320.515 258.209C325.18 254.396 330.946 252.188 336.961 251.911C342.881 251.587 348.752 253.139 353.742 256.346C358.732 259.553 362.588 264.253 364.761 269.778C373.86 292.917 382.457 321.439 371.739 325.912C357.691 331.775 320.659 334.388 309.643 335.049C309.58 335.053 309.517 335.055 309.454 335.055Z" fill="#3F3D56"/>
<path d="M373.796 211.786C374.061 212.058 374.346 212.309 374.65 212.536L372.883 246.539L365.532 250.308L369.762 262.164L383.422 256.757C384.526 256.32 385.458 255.537 386.079 254.524C386.7 253.511 386.977 252.324 386.867 251.141L383.288 212.57C384.459 211.695 385.337 210.483 385.804 209.097C386.27 207.71 386.305 206.214 385.902 204.807C385.499 203.4 384.678 202.149 383.548 201.221C382.419 200.293 381.034 199.732 379.577 199.611C378.121 199.491 376.663 199.818 375.397 200.548C374.13 201.278 373.116 202.377 372.488 203.698C371.861 205.02 371.65 206.501 371.883 207.946C372.117 209.391 372.784 210.73 373.796 211.786Z" fill="#A0616A"/>
<path d="M373.022 247.804L378.193 262.523C378.34 262.942 378.395 263.388 378.355 263.83C378.315 264.272 378.18 264.7 377.959 265.085C377.739 265.471 377.438 265.804 377.077 266.062C376.717 266.32 376.305 266.497 375.87 266.582L360.622 269.54C358.479 270.282 356.129 270.142 354.088 269.151C352.047 268.16 350.482 266.399 349.735 264.254C348.989 262.109 349.122 259.755 350.106 257.708C351.089 255.662 352.843 254.089 354.983 253.335L368.673 246.097C369.065 245.89 369.497 245.77 369.94 245.745C370.382 245.72 370.825 245.791 371.238 245.953C371.65 246.115 372.023 246.364 372.331 246.684C372.639 247.003 372.875 247.385 373.022 247.804V247.804Z" fill="#3F3D56"/>
<path d="M300.875 211.786C300.61 212.058 300.325 212.309 300.021 212.536L301.788 246.539L309.139 250.308L304.909 262.164L291.249 256.757C290.145 256.32 289.213 255.537 288.592 254.524C287.97 253.511 287.694 252.324 287.804 251.141L291.383 212.57C290.211 211.695 289.334 210.483 288.867 209.097C288.4 207.71 288.366 206.214 288.769 204.807C289.172 203.4 289.993 202.149 291.123 201.221C292.252 200.293 293.637 199.732 295.093 199.611C296.55 199.491 298.008 199.818 299.274 200.548C300.54 201.278 301.555 202.377 302.182 203.698C302.81 205.02 303.021 206.501 302.788 207.946C302.554 209.391 301.887 210.73 300.875 211.786H300.875Z" fill="#A0616A"/>
<path d="M303.433 245.954C303.845 245.791 304.288 245.72 304.731 245.745C305.173 245.77 305.605 245.89 305.997 246.097L319.688 253.336C321.827 254.089 323.581 255.662 324.565 257.709C325.549 259.756 325.682 262.11 324.935 264.255C324.189 266.4 322.623 268.161 320.582 269.151C318.542 270.142 316.192 270.282 314.048 269.54L298.801 266.582C298.365 266.498 297.954 266.32 297.593 266.062C297.232 265.804 296.932 265.471 296.711 265.086C296.491 264.701 296.356 264.272 296.316 263.83C296.275 263.388 296.331 262.942 296.478 262.524L301.649 247.804C301.796 247.386 302.031 247.003 302.339 246.684C302.647 246.364 303.02 246.115 303.433 245.954Z" fill="#3F3D56"/>
<path d="M344.446 231.703C344.358 229.552 344.897 227.422 345.997 225.572C347.098 223.723 348.712 222.235 350.643 221.289C355.76 218.643 358.975 212.999 357.567 207.845C355.763 201.248 346.799 196.969 339.536 199.239C337.571 199.938 335.675 200.821 333.874 201.875L329.129 204.423C327.102 205.439 325.147 206.595 323.279 207.882C320.482 209.947 318.289 212.727 316.93 215.931C315.571 219.135 315.096 222.645 315.554 226.096C316.489 232.803 320.874 238.954 326.876 243.165C329.171 244.883 331.823 246.064 334.634 246.619C337.511 247.094 340.714 246.554 342.818 244.762C346.105 241.961 345.766 237.271 344.702 233.354C344.562 232.813 344.476 232.26 344.446 231.703Z" fill="#2F2E41"/>
<path d="M189.116 353.752L81.6564 397.91C79.8109 398.666 77.7414 398.657 75.902 397.887C74.0625 397.116 72.6033 395.647 71.8444 393.8L38.9495 313.484C38.3966 312.13 38.4025 310.611 38.9661 309.261C39.5296 307.911 40.6047 306.84 41.9555 306.283L153.048 260.633C154.423 260.07 155.965 260.076 157.336 260.65C158.707 261.224 159.795 262.32 160.36 263.696L193.219 343.924C193.974 345.772 193.966 347.845 193.196 349.688C192.427 351.53 190.96 352.992 189.116 353.752Z" fill="#3F3D56"/>
<path d="M85.5496 388.169L179.515 349.556C181.305 348.82 182.729 347.403 183.475 345.616C184.221 343.829 184.228 341.818 183.494 340.025L156.932 275.171C156.568 274.283 156.034 273.476 155.359 272.796C154.684 272.115 153.882 271.574 152.998 271.204C152.115 270.834 151.167 270.642 150.21 270.639C149.252 270.635 148.303 270.821 147.417 271.185L53.4514 309.798C52.5654 310.162 51.7597 310.697 51.0802 311.373C50.4007 312.049 49.8608 312.853 49.4914 313.738C49.1219 314.623 48.93 315.572 48.9268 316.531C48.9236 317.491 49.109 318.441 49.4724 319.328L76.0349 384.183C76.3984 385.07 76.9328 385.878 77.6077 386.558C78.2825 387.239 79.0846 387.779 79.9682 388.15C80.8517 388.52 81.7993 388.712 82.757 388.715C83.7146 388.718 84.6636 388.533 85.5496 388.169Z" fill="#2A2A2A"/>
<path d="M156.413 292.858L155.031 293.426L155.126 293.656L156.507 293.089L156.413 292.858Z" fill="#3F3D56"/>
<path d="M152.334 294.803L149.543 295.95L149.449 295.719L152.239 294.572L152.334 294.803ZM146.752 297.097L143.961 298.243L143.867 298.013L146.658 296.866L146.752 297.097ZM141.17 299.39L138.379 300.537L138.285 300.306L141.076 299.16L141.17 299.39ZM135.588 301.684L132.798 302.831L132.703 302.6L135.494 301.453L135.588 301.684ZM130.007 303.978L127.216 305.125L127.121 304.894L129.912 303.747L130.007 303.978ZM124.425 306.271L121.634 307.418L121.54 307.188L124.33 306.041L124.425 306.271ZM118.843 308.565L116.052 309.712L115.958 309.481L118.749 308.334L118.843 308.565ZM113.261 310.859L110.47 312.006L110.376 311.775L113.167 310.628L113.261 310.859ZM107.68 313.152L104.889 314.299L104.794 314.069L107.585 312.922L107.68 313.152ZM102.098 315.446L99.3069 316.593L99.2124 316.362L102.003 315.216L102.098 315.446ZM96.516 317.74L93.7251 318.887L93.6306 318.656L96.4215 317.509L96.516 317.74ZM90.9342 320.034L88.1433 321.18L88.0489 320.95L90.8397 319.803L90.9342 320.034ZM85.3524 322.327L82.5615 323.474L82.4671 323.243L85.258 322.097L85.3524 322.327ZM79.7706 324.621L76.9797 325.768L76.8852 325.537L79.6762 324.39L79.7706 324.621ZM74.1888 326.915L71.398 328.062L71.3035 327.831L74.0944 326.684L74.1888 326.915ZM68.6071 329.208L65.8161 330.355L65.7217 330.125L68.5126 328.978L68.6071 329.208Z" fill="#3F3D56"/>
<path d="M62.9313 331.271L61.5498 331.839L61.6443 332.069L63.0258 331.502L62.9313 331.271Z" fill="#3F3D56"/>
<path d="M119.838 332.945L118.456 333.513L118.551 333.743L119.932 333.176L119.838 332.945Z" fill="#3F3D56"/>
<path d="M115.801 334.873L113.051 336.003L112.957 335.772L115.706 334.643L115.801 334.873ZM110.302 337.133L107.553 338.263L107.458 338.032L110.208 336.902L110.302 337.133ZM104.803 339.392L102.054 340.522L101.959 340.292L104.709 339.162L104.803 339.392ZM99.3043 341.652L96.5548 342.782L96.4604 342.551L99.2098 341.421L99.3043 341.652ZM93.8054 343.912L91.0559 345.042L90.9614 344.811L93.7109 343.681L93.8054 343.912ZM88.3065 346.171L85.557 347.301L85.4626 347.071L88.212 345.941L88.3065 346.171ZM82.8076 348.431L80.0582 349.561L79.9637 349.33L82.7131 348.2L82.8076 348.431ZM77.3087 350.691L74.5593 351.82L74.4648 351.59L77.2143 350.46L77.3087 350.691Z" fill="#3F3D56"/>
<path d="M71.7155 352.719L70.334 353.287L70.4284 353.518L71.8099 352.95L71.7155 352.719Z" fill="#3F3D56"/>
<path d="M97.0553 354.163L95.6738 354.73L95.7683 354.961L97.1498 354.393L97.0553 354.163Z" fill="#3F3D56"/>
<path d="M92.9395 356.123L90.1107 357.286L90.0162 357.055L92.845 355.893L92.9395 356.123ZM87.2819 358.448L84.4531 359.61L84.3587 359.38L87.1874 358.217L87.2819 358.448ZM81.6244 360.773L78.7956 361.935L78.7012 361.705L81.5299 360.542L81.6244 360.773Z" fill="#3F3D56"/>
<path d="M75.8717 362.868L74.4902 363.436L74.5847 363.666L75.9662 363.098L75.8717 362.868Z" fill="#3F3D56"/>
<path d="M104.148 371.48L102.767 372.048L102.861 372.278L104.243 371.711L104.148 371.48Z" fill="#3F3D56"/>
<path d="M100.032 373.441L97.2035 374.603L97.109 374.372L99.9378 373.21L100.032 373.441ZM94.3747 375.765L91.5459 376.928L91.4515 376.697L94.2802 375.535L94.3747 375.765ZM88.7172 378.09L85.8884 379.253L85.7939 379.022L88.6227 377.86L88.7172 378.09Z" fill="#3F3D56"/>
<path d="M82.9645 380.185L81.583 380.753L81.6775 380.984L83.059 380.416L82.9645 380.185Z" fill="#3F3D56"/>
<path d="M89.5391 377.959L169.169 345.237C171.096 344.443 172.63 342.915 173.434 340.989C174.238 339.063 174.246 336.897 173.457 334.965L157.369 295.683L157.213 295.752L137.672 342.553L123.179 336.483C122.911 336.371 122.622 336.321 122.332 336.339C122.042 336.357 121.761 336.442 121.51 336.588C121.132 336.815 120.84 337.161 120.679 337.572L110.438 362.097L99.841 357.66C99.6124 357.564 99.3671 357.514 99.1193 357.513C98.8714 357.512 98.6258 357.56 98.3965 357.655C98.1671 357.749 97.9586 357.887 97.7828 358.062C97.6069 358.237 97.4672 358.445 97.3717 358.674C97.3039 358.841 90.7701 374.898 89.5391 377.959Z" fill="#23F6F0"/>
<path d="M89.294 378.33L89.0645 378.233L97.2584 358.607C97.4754 358.089 97.8886 357.678 98.4075 357.465C98.9264 357.252 99.5085 357.254 100.026 357.47L110.413 361.821L120.596 337.431C120.813 336.913 121.226 336.502 121.745 336.289C122.264 336.076 122.846 336.077 123.364 336.294L137.648 342.277L157.289 295.231L157.519 295.328L137.781 342.603L123.268 336.524C123.042 336.429 122.799 336.38 122.554 336.379C122.309 336.378 122.066 336.426 121.839 336.519C121.613 336.612 121.406 336.749 121.232 336.922C121.059 337.095 120.92 337.301 120.826 337.527L110.547 362.147L99.9301 357.7C99.4734 357.509 98.9598 357.508 98.5019 357.696C98.0441 357.884 97.6795 358.246 97.488 358.703L89.294 378.33Z" fill="#3F3D56"/>
<path d="M97.1024 356.023C98.0646 356.023 98.8445 355.242 98.8445 354.278C98.8445 353.314 98.0646 352.533 97.1024 352.533C96.1403 352.533 95.3604 353.314 95.3604 354.278C95.3604 355.242 96.1403 356.023 97.1024 356.023Z" fill="#3F3D56"/>
<path d="M119.885 334.805C120.847 334.805 121.627 334.024 121.627 333.06C121.627 332.097 120.847 331.315 119.885 331.315C118.923 331.315 118.143 332.097 118.143 333.06C118.143 334.024 118.923 334.805 119.885 334.805Z" fill="#3F3D56"/>
<path d="M155.36 294.656C156.322 294.656 157.102 293.875 157.102 292.911C157.102 291.947 156.322 291.166 155.36 291.166C154.398 291.166 153.618 291.947 153.618 292.911C153.618 293.875 154.398 294.656 155.36 294.656Z" fill="#3F3D56"/>
<path d="M57.8504 352.298C58.756 351.847 59.5518 351.202 60.1817 350.409C60.8117 349.617 61.2604 348.695 61.4963 347.71C61.7322 346.725 61.7495 345.699 61.5471 344.707C61.3447 343.714 60.9274 342.778 60.3247 341.964L65.4987 291.293H54.3172L50.2052 340.771C48.9076 341.875 48.0596 343.419 47.822 345.108C47.5843 346.797 47.9736 348.515 48.916 349.936C49.8583 351.357 51.2883 352.382 52.935 352.818C54.5817 353.253 56.3306 353.068 57.8504 352.298Z" fill="#FFB8B8"/>
<path d="M68.1176 263.328C76.8545 263.328 83.9372 256.234 83.9372 247.483C83.9372 238.731 76.8545 231.637 68.1176 231.637C59.3806 231.637 52.2979 238.731 52.2979 247.483C52.2979 256.234 59.3806 263.328 68.1176 263.328Z" fill="#FFB8B8"/>
<path d="M71.0953 320.802C70.462 320.802 69.8463 320.594 69.3427 320.209C68.839 319.825 68.4751 319.286 68.3069 318.674C67.0395 314.062 63.742 306.263 58.5061 295.494C57.3247 293.059 56.6705 290.402 56.5864 287.697C56.5023 284.991 56.9903 282.298 58.0182 279.795C59.0461 277.292 60.5908 275.035 62.551 273.171C64.5112 271.308 66.8425 269.881 69.392 268.984C71.808 268.129 74.3706 267.769 76.9282 267.924C79.4858 268.079 81.9863 268.746 84.282 269.886C86.5776 271.026 88.6217 272.615 90.2933 274.56C91.9648 276.505 93.23 278.767 94.0138 281.21C98.0721 293.954 97.8762 307.606 97.6035 312.883C97.5696 313.519 97.3287 314.126 96.9176 314.611C96.5065 315.097 95.9478 315.434 95.3273 315.571L71.7169 320.735C71.5128 320.78 71.3043 320.802 71.0953 320.802Z" fill="#FF6584"/>
<path d="M93.9594 471.272H101.856L105.612 440.764L93.958 440.764L93.9594 471.272Z" fill="#FFB8B8"/>
<path d="M117.085 478.616L92.2674 478.617L92.267 469.013L107.496 469.012C108.755 469.012 110.002 469.26 111.165 469.743C112.329 470.226 113.386 470.933 114.276 471.825C115.167 472.717 115.873 473.776 116.355 474.941C116.837 476.106 117.085 477.355 117.085 478.616Z" fill="#2F2E41"/>
<path d="M14.999 461.022L21.9191 464.832L39.8855 439.911L29.6733 434.287L14.999 461.022Z" fill="#FFB8B8"/>
<path d="M31.7314 478.617L9.98387 466.641L14.6033 458.225L27.9484 465.574C30.1769 466.801 31.8274 468.865 32.5369 471.311C33.2463 473.757 32.9566 476.385 31.7314 478.617Z" fill="#2F2E41"/>
<path d="M93.5901 454.339C92.8864 454.338 92.207 454.081 91.6786 453.616C91.1503 453.151 90.809 452.508 90.7185 451.809L80.843 375.585C80.7994 375.247 80.6505 374.933 80.4176 374.685C80.1847 374.438 79.8798 374.271 79.5463 374.207C79.2128 374.144 78.8679 374.188 78.5607 374.332C78.2536 374.477 78 374.715 77.8361 375.013L36.6791 449.807C36.3395 450.418 35.7924 450.886 35.1372 451.127C34.4821 451.368 33.7624 451.365 33.1091 451.12L24.1381 447.696C23.7772 447.558 23.4475 447.35 23.1682 447.083C22.889 446.816 22.6658 446.495 22.5119 446.141C22.3579 445.786 22.2762 445.404 22.2717 445.017C22.2671 444.631 22.3398 444.247 22.4854 443.889L50.9958 373.735C51.068 373.557 51.117 373.37 51.1414 373.18C55.003 343.242 64.8282 328.018 67.7474 324.065C67.9606 323.774 68.1009 323.437 68.1565 323.08C68.2121 322.724 68.1814 322.36 68.0668 322.018L67.6655 320.812C67.5052 320.333 67.4723 319.821 67.5702 319.326C67.668 318.831 67.8931 318.37 68.2233 317.988C78.7422 305.987 97.0763 312.536 97.2603 312.603L97.3522 312.637L97.4098 312.716C117.968 340.956 110.367 432.68 108.634 450.781C108.57 451.461 108.267 452.096 107.78 452.574C107.292 453.053 106.652 453.343 105.972 453.393L93.8152 454.331C93.7396 454.337 93.6646 454.339 93.5901 454.339Z" fill="#2F2E41"/>
<path d="M129.618 265.889C129.539 266.237 129.488 266.591 129.464 266.947L101.795 282.935L95.07 279.057L87.9004 288.459L99.1401 296.483C100.048 297.131 101.142 297.467 102.256 297.44C103.371 297.413 104.447 297.024 105.322 296.332L133.854 273.787C135.141 274.264 136.543 274.337 137.874 273.997C139.204 273.657 140.399 272.919 141.301 271.882C142.202 270.844 142.767 269.556 142.92 268.19C143.073 266.823 142.807 265.442 142.157 264.231C141.507 263.019 140.505 262.034 139.283 261.408C138.06 260.781 136.677 260.541 135.316 260.721C133.954 260.901 132.68 261.492 131.662 262.415C130.645 263.338 129.932 264.55 129.618 265.889Z" fill="#FFB8B8"/>
<path d="M100.871 283.693L91.9282 295.303C91.6738 295.633 91.3512 295.904 90.9826 296.099C90.614 296.293 90.2079 296.405 89.792 296.428C89.3761 296.451 88.9602 296.383 88.5726 296.231C88.185 296.078 87.8348 295.843 87.5458 295.543L77.4223 285.013C75.7426 283.7 74.6513 281.772 74.3879 279.654C74.1245 277.536 74.7104 275.4 76.0172 273.714C77.3239 272.027 79.2448 270.929 81.3588 270.659C83.4728 270.39 85.6072 270.971 87.2942 272.275L99.9912 279.386C100.355 279.59 100.67 279.87 100.916 280.207C101.162 280.544 101.332 280.93 101.416 281.338C101.499 281.747 101.494 282.169 101.4 282.575C101.305 282.982 101.125 283.363 100.871 283.693Z" fill="#FF6584"/>
<path d="M66.2111 303.862L51.8053 301.257C51.3954 301.183 51.0063 301.021 50.6644 300.782C50.3226 300.544 50.036 300.235 49.8243 299.875C49.6126 299.516 49.4806 299.115 49.4375 298.7C49.3943 298.285 49.441 297.866 49.5742 297.471L54.2443 283.621C54.6347 281.522 55.8401 279.665 57.596 278.455C59.3519 277.245 61.5151 276.782 63.6112 277.168C65.7073 277.553 67.5652 278.756 68.7776 280.511C69.99 282.267 70.4579 284.432 70.0787 286.533L69.6231 301.097C69.6099 301.514 69.5071 301.923 69.3218 302.297C69.1365 302.67 68.873 303 68.5492 303.262C68.2254 303.525 67.8489 303.714 67.4454 303.818C67.042 303.921 66.6209 303.936 66.2111 303.862H66.2111Z" fill="#FF6584"/>
<path d="M70.6216 243.838C74.6876 246.625 80.0264 249.491 84.1792 246.522C85.4782 245.531 86.4219 244.146 86.869 242.573C87.3161 241 87.2425 239.324 86.6594 237.797C84.6709 232.101 79.2075 229.593 73.9832 227.671C67.1916 225.172 59.7965 223.184 52.7852 224.974C45.774 226.763 39.5776 233.563 40.8433 240.698C41.8611 246.437 47.2649 251.211 46.4978 256.988C45.7257 262.803 39.1977 265.863 33.4345 266.902C27.6713 267.941 21.2222 268.275 17.0804 272.422C11.7968 277.711 13.1162 287.166 18.0879 292.751C23.0595 298.335 30.562 300.867 37.8319 302.588C47.4641 304.868 57.882 306.066 67.0302 302.282C76.1784 298.498 83.2973 288.312 80.6472 278.76C79.5278 274.725 76.8909 271.315 74.3424 267.995C71.794 264.676 69.2134 261.204 68.2413 257.132C67.4312 253.738 68.0308 249.797 70.2778 247.251C70.6865 246.805 70.9437 246.242 71.0125 245.64C71.0813 245.039 70.9581 244.432 70.6607 243.905L70.6216 243.838Z" fill="#2F2E41"/>
</svg>
