<svg width="1048" height="901" viewBox="0 0 1048 901" fill="none" xmlns="http://www.w3.org/2000/svg">
<path d="M976.114 706.268C975.731 720.596 973.332 734.798 968.988 748.456C968.889 748.773 968.785 749.085 968.681 749.402H942.087C942.116 749.118 942.144 748.801 942.172 748.456C943.946 728.062 954.169 603.941 941.945 582.715C943.014 584.437 978.176 641.469 976.114 706.268Z" fill="#3F3D56"/>
<path d="M974.119 748.456C973.897 748.773 973.665 749.09 973.429 749.402H953.479C953.63 749.132 953.805 748.815 954.008 748.456C957.304 742.505 967.059 724.713 976.114 706.268C985.846 686.447 994.774 665.874 994.022 658.428C994.254 660.107 1000.99 711.302 974.119 748.456Z" fill="#3F3D56"/>
<path d="M1048 747.588H283.288V750.09H1048V747.588Z" fill="#3F3D56"/>
<path d="M772.775 825.733L776.49 795.073L881.434 768.13L869.36 731.895C877.77 707.764 892.535 695.934 919.51 707.739L965.911 736.576C970.421 739.378 974.094 743.342 976.548 748.051C979.002 752.761 980.145 758.044 979.858 763.347V763.347C979.575 768.671 977.859 773.82 974.893 778.25C971.927 782.679 967.821 786.226 963.007 788.514C911.062 813.147 844.856 822.573 772.775 825.733Z" fill="#FFB8B8"/>
<path d="M779.276 835.024L746.772 830.378L716.369 836.585C714.507 836.966 712.584 836.937 710.733 836.501C708.883 836.065 707.149 835.232 705.652 834.06C704.155 832.888 702.93 831.405 702.062 829.713C701.193 828.021 700.703 826.161 700.624 824.261V824.261C700.535 822.136 700.964 820.021 701.873 818.098C702.782 816.175 704.144 814.502 705.842 813.222L753.483 777.313C757.568 774.234 762.618 772.712 767.724 773.021C772.83 773.33 777.659 775.449 781.344 778.999L793.207 790.428C784.718 795.696 778.406 803.602 774.633 814.584C782.791 819.071 784.339 825.884 779.276 835.024Z" fill="#FD335D"/>
<path d="M810.321 513.131C826.923 513.131 840.382 499.667 840.382 483.058C840.382 466.449 826.923 452.984 810.321 452.984C793.719 452.984 780.261 466.449 780.261 483.058C780.261 499.667 793.719 513.131 810.321 513.131Z" fill="#FFB8B8"/>
<path d="M857.287 542.362L789.956 570.699C795.428 543.212 798.155 518.173 789.956 502.876L833.141 497.766C830.997 509.521 841.923 525.264 857.287 542.362Z" fill="#FFB8B8"/>
<path d="M743.057 824.804L717.982 822.946C702.621 758.863 694.756 698.291 698.189 643.011C698.674 634.941 702.265 627.373 708.207 621.894C714.15 616.416 721.983 613.453 730.063 613.627C737.826 613.804 745.245 616.869 750.871 622.225L783.297 653.095C797.757 666.754 808.983 683.475 816.152 702.033C825.336 726.096 822.039 739.585 800.115 737.294C786.416 735.767 773.816 729.065 764.889 718.558L741.199 691.016L743.057 824.804Z" fill="#FFB8B8"/>
<path d="M723.639 900.955C720.352 900.74 717.159 899.772 714.307 898.124C711.455 896.476 709.02 894.194 707.192 891.453C705.363 888.713 704.19 885.588 703.763 882.321C703.336 879.054 703.667 875.732 704.73 872.613L709.624 858.251L713.338 822.017C719.061 810.335 727.165 812.083 736.556 821.088C742.526 820.502 743.808 814.529 743.057 806.223L761.884 831.577C763.495 833.747 764.495 836.31 764.78 838.998C765.065 841.686 764.624 844.401 763.503 846.86L744.555 888.441C742.749 892.403 739.782 895.723 736.046 897.958C732.31 900.193 727.982 901.238 723.639 900.955V900.955Z" fill="#FD335D"/>
<path d="M960.838 733.289C926.476 752.8 915.706 753.366 881.434 767.201L851.715 750.477C816.813 763.388 792.33 745.689 765.811 719.353C783.165 690.435 775.49 652.857 786.242 653.387L914.867 693.803L920.439 707.739L960.838 733.289Z" fill="#FD335D"/>
<path d="M919.511 703.094C874.094 722.76 825.194 701.938 783.456 656.175L755.819 544.515C755.493 543.285 755.421 542.001 755.609 540.743C755.798 539.484 756.242 538.277 756.914 537.197C757.586 536.117 758.473 535.185 759.519 534.461C760.564 533.736 761.748 533.234 762.995 532.984L795.065 526.568L810.853 551.653L842.428 523.78L875.962 534.748C880.42 536.206 884.399 538.849 887.473 542.393C890.547 545.938 892.601 550.252 893.414 554.874L919.511 703.094Z" fill="#23F6F0"/>
<path opacity="0.2" d="M847.371 797.754C844.92 796.82 842.729 795.311 840.981 793.354C839.233 791.398 837.98 789.051 837.327 786.509C836.673 783.968 836.639 781.307 837.226 778.75C837.813 776.192 839.004 773.813 840.7 771.811L861.93 746.761L876.79 755.123L869.138 786.33C868.584 788.588 867.557 790.703 866.125 792.534C864.692 794.365 862.887 795.87 860.829 796.951C858.771 798.031 856.507 798.661 854.186 798.8C851.866 798.938 849.543 798.582 847.371 797.754Z" fill="black"/>
<path d="M847.371 794.038C844.92 793.104 842.729 791.595 840.981 789.639C839.233 787.682 837.98 785.335 837.327 782.793C836.673 780.252 836.639 777.591 837.226 775.034C837.813 772.476 839.004 770.097 840.7 768.096L861.93 743.045L876.789 751.407L869.138 782.614C868.584 784.872 867.557 786.987 866.125 788.818C864.692 790.649 862.887 792.155 860.829 793.235C858.771 794.315 856.506 794.945 854.186 795.084C851.866 795.222 849.543 794.866 847.371 794.038V794.038Z" fill="#FFB8B8"/>
<path d="M880.505 758.839L858.216 743.974L890.72 657.569L878.647 535.858L889.661 542.745C895.571 546.44 900.67 551.299 904.647 557.025C908.625 562.751 911.398 569.226 912.798 576.057L930.655 663.143C922.841 703.284 909.818 738.602 880.505 758.839Z" fill="#23F6F0"/>
<path opacity="0.2" d="M867.039 620.87L878.184 676.616L869.017 709.218L867.039 620.87Z" fill="black"/>
<path d="M780.922 480.479C780.922 480.479 763.6 423.763 816.542 435.657C824.754 437.502 831.849 442.278 837.492 448.524C837.998 449.07 838.617 449.499 839.306 449.781C839.995 450.062 840.737 450.19 841.481 450.154C849.938 450.154 855.162 480.388 838.247 493.684C838.247 493.684 841.699 475.793 835.425 469.697C834.297 468.665 833.353 467.449 832.633 466.1C828.55 457.86 814.824 455.155 805.358 455.857C800.525 456.215 800.102 464.644 794.753 463.467C782.58 460.788 778.694 474.895 780.922 480.479Z" fill="#FD335D"/>
<path d="M834.21 564.658L833.86 567.226L831.696 583.071L828.153 609.02L827.266 615.517C827.199 616.013 826.954 616.467 826.577 616.796C826.2 617.125 825.716 617.307 825.216 617.307H801.59C801.091 617.307 800.608 617.126 800.231 616.798C799.854 616.47 799.609 616.017 799.54 615.522L798.638 609.02L795.035 583.071L792.834 567.214L792.48 564.663C792.439 564.37 792.461 564.071 792.546 563.788C792.63 563.504 792.774 563.242 792.968 563.019C793.162 562.795 793.402 562.616 793.671 562.494C793.941 562.371 794.233 562.308 794.529 562.308H832.159C832.455 562.308 832.747 562.371 833.016 562.493C833.284 562.616 833.524 562.794 833.718 563.017C833.912 563.24 834.057 563.501 834.142 563.784C834.226 564.067 834.25 564.365 834.21 564.658V564.658Z" fill="#E6E6E6"/>
<path d="M797.022 555.434H829.789C830.061 555.434 830.33 555.487 830.581 555.591C830.832 555.695 831.06 555.848 831.252 556.04C831.445 556.232 831.597 556.46 831.701 556.711C831.805 556.963 831.859 557.232 831.859 557.504V560.238C831.859 560.787 831.64 561.314 831.252 561.702C830.864 562.09 830.338 562.308 829.789 562.308H797.022C796.474 562.308 795.947 562.09 795.559 561.702C795.171 561.314 794.953 560.787 794.953 560.238V557.504C794.953 557.232 795.007 556.963 795.111 556.711C795.215 556.46 795.367 556.232 795.559 556.04C795.751 555.848 795.979 555.695 796.23 555.591C796.482 555.487 796.751 555.434 797.022 555.434V555.434Z" fill="#3F3D56"/>
<path d="M837.171 565.746C821.374 567.471 805.438 567.471 789.641 565.746C789.37 565.746 789.101 565.692 788.85 565.588C788.599 565.484 788.37 565.332 788.178 565.14C787.986 564.947 787.834 564.719 787.73 564.468C787.626 564.217 787.572 563.948 787.572 563.676V560.941C787.572 560.669 787.626 560.4 787.73 560.149C787.834 559.898 787.986 559.67 788.178 559.477C788.37 559.285 788.599 559.133 788.85 559.029C789.101 558.925 789.37 558.871 789.641 558.871C805.425 560.813 821.387 560.813 837.171 558.871C837.719 558.871 838.246 559.089 838.634 559.477C839.022 559.866 839.24 560.392 839.24 560.941V563.676C839.24 564.225 839.022 564.751 838.634 565.14C838.246 565.528 837.719 565.746 837.171 565.746V565.746Z" fill="#3F3D56"/>
<path d="M812.447 597.513C817.379 597.513 821.377 593.513 821.377 588.578C821.377 583.644 817.379 579.644 812.447 579.644C807.514 579.644 803.516 583.644 803.516 588.578C803.516 593.513 807.514 597.513 812.447 597.513Z" fill="white"/>
<path d="M835.406 607.375C835.678 609.985 835.319 612.622 834.361 615.064C833.403 617.507 831.874 619.684 829.901 621.413C827.928 623.142 825.569 624.373 823.022 625.001C820.476 625.63 817.816 625.638 815.265 625.026L783.344 617.359L784.107 600.32L815.402 593.086C817.667 592.563 820.016 592.527 822.296 592.981C824.575 593.435 826.732 594.368 828.624 595.719C830.515 597.07 832.098 598.808 833.268 600.818C834.437 602.827 835.166 605.062 835.406 607.375V607.375Z" fill="#FFB8B8"/>
<path d="M792.278 620.405L706.13 622.56C703.02 622.637 699.93 622.036 697.077 620.797C694.223 619.558 691.674 617.712 689.606 615.386C687.539 613.061 686.003 610.313 685.106 607.333C684.209 604.353 683.972 601.213 684.412 598.133V598.133C685.102 593.306 687.418 588.859 690.977 585.527L731.538 547.567C739.061 540.527 748.435 535.779 758.56 533.879L772.775 531.213L781.134 594.391L732.841 588.816L789.492 595.32L792.278 620.405Z" fill="#23F6F0"/>
<path d="M678.785 805.793H458.853C456.897 805.793 455.021 805.016 453.638 803.633C452.256 802.249 451.479 800.373 451.479 798.416V798.416C531.204 789.147 609.431 789.147 686.16 798.416C686.16 800.373 685.383 802.249 684 803.633C682.617 805.016 680.741 805.793 678.785 805.793Z" fill="#2F2E41"/>
<path d="M686.16 798.849L451.479 798.415L478.677 752.631L478.807 752.414V651.512C478.807 650.287 479.048 649.074 479.517 647.943C479.985 646.811 480.672 645.783 481.538 644.917C482.403 644.051 483.431 643.364 484.562 642.895C485.693 642.427 486.905 642.185 488.13 642.186H648.207C649.432 642.185 650.644 642.427 651.775 642.895C652.906 643.364 653.934 644.051 654.799 644.917C655.665 645.783 656.352 646.811 656.82 647.943C657.289 649.074 657.53 650.287 657.53 651.512V753.109L686.16 798.849Z" fill="#3F3D56"/>
<path d="M487.916 648.695C487.111 648.696 486.339 649.017 485.77 649.586C485.201 650.156 484.881 650.928 484.88 651.733V743.735C484.881 744.541 485.201 745.313 485.77 745.882C486.34 746.452 487.111 746.772 487.916 746.773H649.721C650.526 746.772 651.298 746.452 651.867 745.882C652.436 745.313 652.756 744.541 652.757 743.735V651.733C652.756 650.928 652.436 650.156 651.867 649.586C651.298 649.017 650.526 648.696 649.721 648.695L487.916 648.695Z" fill="#2A2A2A"/>
<path d="M488.98 758.925C488.731 758.925 488.488 758.997 488.278 759.131C488.069 759.265 487.902 759.457 487.798 759.683L479.417 777.909C479.326 778.108 479.286 778.326 479.301 778.544C479.316 778.761 479.386 778.972 479.503 779.156C479.621 779.34 479.783 779.491 479.975 779.596C480.166 779.701 480.381 779.755 480.599 779.755H656.843C657.064 779.755 657.283 779.699 657.476 779.591C657.67 779.483 657.833 779.327 657.95 779.138C658.066 778.949 658.133 778.734 658.143 778.512C658.152 778.29 658.106 778.07 658.006 777.871L648.897 759.644C648.789 759.428 648.623 759.246 648.418 759.118C648.212 758.991 647.975 758.924 647.733 758.925L488.98 758.925Z" fill="#2F2E41"/>
<path d="M568.168 647.177C569.246 647.177 570.12 646.303 570.12 645.224C570.12 644.146 569.246 643.271 568.168 643.271C567.09 643.271 566.216 644.146 566.216 645.224C566.216 646.303 567.09 647.177 568.168 647.177Z" fill="white"/>
<path d="M550.845 783.227C550.559 783.227 550.281 783.321 550.054 783.495C549.827 783.67 549.663 783.914 549.588 784.19L547.486 792.001C547.434 792.194 547.427 792.397 547.466 792.593C547.505 792.789 547.588 792.973 547.71 793.132C547.831 793.29 547.988 793.419 548.167 793.507C548.346 793.596 548.543 793.642 548.743 793.642H588.723C588.93 793.642 589.135 793.592 589.319 793.497C589.503 793.402 589.662 793.264 589.783 793.095C589.903 792.926 589.981 792.731 590.01 792.525C590.04 792.32 590.02 792.11 589.952 791.914L587.249 784.102C587.161 783.847 586.995 783.625 586.774 783.468C586.554 783.311 586.29 783.227 586.019 783.227H550.845Z" fill="#2F2E41"/>
<path d="M657.529 750.896V752.632H478.677L478.811 752.414V750.896H657.529Z" fill="#2F2E41"/>
<path d="M402.899 693C403.39 711.364 406.465 729.567 412.032 747.072C412.16 747.478 412.293 747.878 412.426 748.285H446.512C446.476 747.921 446.439 747.515 446.403 747.072C444.13 720.933 431.027 561.846 446.694 534.64C445.324 536.847 400.256 609.945 402.899 693Z" fill="#3F3D56"/>
<path d="M405.456 747.073C405.741 747.479 406.038 747.885 406.341 748.285H431.911C431.717 747.94 431.493 747.533 431.232 747.073C427.008 739.445 414.505 716.641 402.898 693C390.425 667.595 378.983 641.226 379.946 631.683C379.649 633.835 371.019 699.452 405.456 747.073Z" fill="#3F3D56"/>
<path d="M503.553 370.338L524 354.226C508.116 352.499 501.589 361.034 498.918 367.79C486.509 362.713 473 369.367 473 369.367L513.91 384C511.846 378.569 508.254 373.83 503.553 370.338V370.338Z" fill="#3F3D56"/>
<path d="M880.52 138.546L894.378 127.458C883.613 126.27 879.189 132.144 877.379 136.793C868.968 133.299 859.812 137.878 859.812 137.878L887.54 147.948C886.141 144.21 883.706 140.949 880.52 138.546V138.546Z" fill="#3F3D56"/>
<path d="M758.708 237.244L772.566 226.155C761.8 224.967 757.377 230.841 755.567 235.49C747.156 231.996 738 236.575 738 236.575L765.727 246.645C764.329 242.907 761.894 239.646 758.708 237.244V237.244Z" fill="#3F3D56"/>
<path d="M190.957 698.018C190.957 698.018 266.634 673.128 337.128 698.018Z" fill="#3F3D56"/>
<path d="M529.58 686.225C544.576 686.069 559.57 685.8 574.565 685.597C579.564 685.529 584.563 685.469 589.563 685.418C593.87 685.373 593.881 678.672 589.563 678.717C574.567 678.873 559.573 679.141 544.577 679.345C539.578 679.413 534.579 679.473 529.58 679.524C525.272 679.569 525.261 686.27 529.58 686.225Z" fill="#23F6F0"/>
<path d="M529.58 701.861L590.187 701.233L607.425 701.054C611.732 701.009 611.743 694.308 607.425 694.353L546.817 694.981L529.58 695.16C525.272 695.204 525.261 701.906 529.58 701.861Z" fill="#23F6F0"/>
<path d="M529.58 717.497L590.187 716.868L607.425 716.69C611.732 716.645 611.743 709.944 607.425 709.989L546.817 710.617L529.58 710.795C525.272 710.84 525.261 717.541 529.58 717.497Z" fill="#23F6F0"/>
<path d="M222.393 862.671L232.694 837.355C224.691 834.642 221.403 848.052 220.058 858.667C213.806 850.69 207 861.144 207 861.144L227.61 884.136C226.571 875.602 224.761 868.156 222.393 862.671V862.671Z" fill="#3F3D56"/>
<ellipse cx="514" cy="776" rx="23" ry="7" fill="#E9D949"/>
<ellipse cx="505" cy="521" rx="3" ry="137" fill="#E9D949"/>
</svg>
