<svg width="252" height="491" viewBox="0 0 252 491" fill="none" xmlns="http://www.w3.org/2000/svg">
<path d="M176.67 230.353V223.868L75.4801 224.008V230.353L75.566 230.629L176.67 230.466V230.353Z" fill="#23F6F0"/>
<path d="M126.1 281C150.431 281 169.873 263.43 174.662 240.447L77.5601 240.614C82.3946 263.457 101.796 281 126.1 281Z" fill="#23F6F0"/>
<path d="M185.497 261.887C189.907 215.129 251.15 204.334 251.15 117.077C251.15 52.447 198.825 0 134.099 0C69.4101 0 16.9902 52.447 16.9902 117.077C16.9902 204.469 78.5364 215.179 82.5704 262.022L185.497 261.887ZM137.871 40.6072C153.225 31.7793 185.497 44.0216 202.022 72.6443C218.493 101.258 212.985 135.375 197.672 144.217C182.472 153.026 190.513 117.448 173.992 88.8211C157.422 60.2256 122.658 49.4305 137.871 40.6072Z" fill="#23F6F0"/>
<mask id="path-4-inside-1" fill="white">
<path d="M168.67 278.353V271.868L67.4801 272.008V278.353L67.566 278.629L168.67 278.466V278.353Z"/>
</mask>
<path d="M168.67 271.868H180.67V259.851L168.654 259.868L168.67 271.868ZM67.4801 272.008L67.4635 260.008L55.4801 260.024V272.008H67.4801ZM67.4801 278.353H55.4801V280.178L56.0229 281.921L67.4801 278.353ZM67.566 278.629L56.1088 282.197L58.7391 290.643L67.5854 290.629L67.566 278.629ZM168.67 278.466L168.689 290.466L180.67 290.447V278.466H168.67ZM180.67 278.353V271.868H156.67V278.353H180.67ZM168.654 259.868L67.4635 260.008L67.4967 284.008L168.687 283.868L168.654 259.868ZM55.4801 272.008V278.353H79.4801V272.008H55.4801ZM56.0229 281.921L56.1088 282.197L79.0233 275.061L78.9374 274.785L56.0229 281.921ZM67.5854 290.629L168.689 290.466L168.651 266.466L67.5467 266.629L67.5854 290.629ZM180.67 278.466V278.353H156.67V278.466H180.67Z" fill="black" mask="url(#path-4-inside-1)"/>
<path d="M184.678 149.409C194.791 143.566 200.43 130.44 201.74 116.402C203.083 102.004 200.1 85.0741 191.222 69.651L191.218 69.6443C182.311 54.216 169.151 43.1633 156.011 37.1292C143.193 31.2429 129.009 29.5823 118.88 35.4057L118.871 35.4113L118.861 35.4169C116.444 36.8188 113.986 38.8253 112.796 41.8316C111.498 45.1128 112.222 48.218 113.423 50.5705C114.552 52.7815 116.3 54.7614 118.029 56.4686C119.81 58.2284 121.948 60.0577 124.174 61.9109C124.967 62.5708 125.78 63.2423 126.609 63.927C135.333 71.1299 145.823 79.7911 152.797 91.8232C159.761 103.892 162.021 117.347 163.898 128.524C164.072 129.562 164.243 130.579 164.414 131.574C164.905 134.43 165.418 137.197 166.049 139.62C166.66 141.97 167.497 144.474 168.841 146.557C170.271 148.773 172.597 150.964 176.098 151.477C179.301 151.946 182.266 150.807 184.678 149.409ZM184.678 149.409C184.676 149.41 184.674 149.412 184.672 149.413L181.672 144.217M184.678 149.409C184.679 149.409 184.68 149.408 184.68 149.408L181.672 144.217M181.672 144.217C196.985 135.375 202.493 101.258 186.022 72.6443L181.672 144.217ZM229.15 117.077C229.15 158.922 214.609 182.138 199.327 200.877C196.665 204.142 193.857 207.403 191.053 210.66C185.971 216.564 180.899 222.455 176.725 228.329C170.948 236.457 166.277 245.291 164.286 255.894L71.8183 256.015C69.8988 245.407 65.2727 236.568 59.5197 228.437C55.3201 222.501 50.2055 216.561 45.0781 210.607C42.3135 207.396 39.5452 204.181 36.9146 200.96C21.6011 182.21 6.99023 158.983 6.99023 117.077C6.99023 55.7608 56.7236 6 118.099 6C179.506 6 229.15 55.7557 229.15 117.077Z" stroke="black" stroke-width="12"/>
<path d="M152.996 412.545C145.904 410.488 138.414 411.207 131.903 414.571C125.392 417.934 120.639 423.537 118.523 430.349C117.97 432.126 116.116 433.264 114.197 433.003L93.854 430.195L118.399 488.847L135.395 489.478L171.76 417.987L152.996 412.545Z" fill="black"/>
<path d="M130.015 332.255L222.395 292.823C222.395 292.823 197.064 270.579 151.661 263.772C95.1021 255.292 46.1216 281.398 33.5889 288.389L45.6719 308.191C56.9823 301.883 95.804 278.644 156.791 287.788C161.245 288.456 165.568 289.794 169.85 291.109L43.3599 350.374L51.0145 365.978L51.0153 365.978C51.023 365.974 51.0315 365.971 51.0394 365.967C51.0394 365.967 99.1688 340.952 143.495 350.014C148.52 351.041 154.991 353.338 159.46 355.156L57.5035 402.942L61.6604 411.524L189.396 358.746C189.396 358.746 175.569 340.99 146.911 334.661C141.305 333.423 135.66 332.638 130.015 332.255Z" fill="#23F6F0"/>
<path d="M130.845 347.255L223.224 307.823C223.224 307.823 197.894 285.579 152.49 278.772C95.9317 270.292 46.9512 296.398 34.4186 303.389L46.5016 323.191C57.8119 316.883 96.6336 293.644 157.621 302.788C162.075 303.456 166.397 304.794 170.679 306.109L44.1896 365.374L51.8442 380.978L51.8449 380.978C51.8527 380.974 51.8612 380.971 51.869 380.967C51.869 380.967 99.9984 355.952 144.324 365.014C149.35 366.041 155.821 368.338 160.289 370.156L58.3332 417.942L62.4901 426.524L190.225 373.746C190.225 373.746 176.399 355.99 147.74 349.661C142.135 348.423 136.49 347.638 130.845 347.255Z" fill="black"/>
</svg>
